<svg xmlns="http://www.w3.org/2000/svg" viewBox="0 0 64 64"><g id="_33.star" data-name="33.star"><path d="M47.4,31.27A14.46,14.46,0,0,1,33,16.82a1,1,0,0,0-2,0A14.47,14.47,0,0,1,16.49,31.27a1,1,0,0,0,0,2A14.48,14.48,0,0,1,31,47.73a1,1,0,0,0,2,0A14.47,14.47,0,0,1,47.4,33.27,1,1,0,0,0,47.4,31.27Z"/><path d="M25.51,45.28a7.34,7.34,0,0,1-7.34-7.34,1,1,0,0,0-2,0,7.35,7.35,0,0,1-7.35,7.34,1,1,0,0,0,0,2,7.36,7.36,0,0,1,7.35,7.35,1,1,0,0,0,2,0,7.35,7.35,0,0,1,7.34-7.35A1,1,0,0,0,25.51,45.28Z"/><path d="M55.18,16.72a7.36,7.36,0,0,1-7.35-7.35,1,1,0,0,0-2,0,7.35,7.35,0,0,1-7.34,7.35,1,1,0,0,0,0,2,7.34,7.34,0,0,1,7.34,7.34,1,1,0,0,0,2,0,7.35,7.35,0,0,1,7.35-7.34A1,1,0,0,0,55.18,16.72Z"/></g></svg>